<svg xmlns="http://www.w3.org/2000/svg"  viewBox="0 0 50 50" width="50px" height="50px"><path d="M 34.5 15 C 30.398438 15 26.6875 16.398438 24.1875 18.5 C 23.789063 19 20.199219 22 16.5 22 C 13.699219 22 12.199219 21 10.5 21 C 5.300781 21 1 24.101563 1 28 L 1 35 C 1 38.898438 5 41.101563 10.5 42 C 10.601563 42 18 43 22.5 43 C 27 43 34.398438 42 34.5 42 C 42.199219 40.699219 48 37.5 48 32 L 48 25 C 48 19.5 42 15 34.5 15 Z M 34.5 17 C 40.800781 17 46 20.601563 46 25 C 45.984375 25.953125 45.71875 26.8125 45.28125 27.5625 C 45.277344 27.570313 45.285156 27.585938 45.28125 27.59375 C 43.3125 30.9375 37.753906 32.351563 34.1875 33 C 33.789063 33.050781 31.886719 33.292969 29.5625 33.53125 C 27.820313 33.710938 25.84375 33.894531 24.125 33.96875 C 23.550781 33.992188 23 34 22.5 34 C 18.101563 34 10.914063 33 10.8125 33 C 10.097656 32.875 9.230469 32.707031 8.375 32.46875 C 8.367188 32.464844 8.351563 32.472656 8.34375 32.46875 C 8.207031 32.429688 8.074219 32.386719 7.9375 32.34375 C 7.640625 32.253906 7.355469 32.140625 7.0625 32.03125 C 6.648438 31.878906 6.230469 31.722656 5.84375 31.53125 C 5.832031 31.523438 5.824219 31.507813 5.8125 31.5 C 5.628906 31.40625 5.457031 31.320313 5.28125 31.21875 C 5.269531 31.210938 5.261719 31.195313 5.25 31.1875 C 5.078125 31.085938 4.910156 30.988281 4.75 30.875 C 4.738281 30.867188 4.730469 30.851563 4.71875 30.84375 C 4.566406 30.738281 4.417969 30.617188 4.28125 30.5 C 4.265625 30.484375 4.234375 30.484375 4.21875 30.46875 C 4.082031 30.347656 3.960938 30.226563 3.84375 30.09375 C 3.832031 30.082031 3.824219 30.074219 3.8125 30.0625 C 3.777344 30.023438 3.75 29.976563 3.71875 29.9375 C 3.628906 29.824219 3.542969 29.714844 3.46875 29.59375 C 3.167969 29.121094 3 28.601563 3 28 C 3 25.300781 6.398438 23 10.5 23 C 11 23 11.488281 23.113281 12.1875 23.3125 C 13.289063 23.613281 14.699219 24 16.5 24 C 20.601563 24 24.394531 21.199219 25.59375 20 C 27.792969 18.101563 31 17 34.5 17 Z M 34.5 19 C 33.699219 19 32.886719 19.085938 32.1875 19.1875 L 32.1875 19.5 C 32.1875 19.800781 32.210938 20.101563 32.3125 20.5 C 32.414063 21.300781 32.5 22.289063 32 23.1875 C 31.601563 23.988281 30.707031 24.414063 29.90625 24.8125 C 29.507813 25.011719 29.105469 25.207031 28.90625 25.40625 C 29.304688 26.105469 29.6875 26.789063 29.6875 27.6875 C 33.488281 28.488281 37.40625 29.414063 38.40625 29.8125 C 38.507813 29.8125 38.5 29.90625 38.5 29.90625 C 41.199219 28.90625 44 27.398438 44 25 C 44 21.800781 39.601563 19 34.5 19 Z M 30.1875 19.59375 C 28.988281 19.992188 27.898438 20.613281 27 21.3125 L 26.90625 21.40625 C 26.804688 21.707031 26.8125 21.792969 26.8125 22.09375 C 26.914063 22.695313 27.1875 23.210938 27.6875 23.8125 C 28.085938 23.511719 28.5 23.300781 29 23 C 29.5 22.699219 30.113281 22.394531 30.3125 22.09375 C 30.511719 21.792969 30.414063 21.289063 30.3125 20.6875 C 30.3125 20.386719 30.1875 19.992188 30.1875 19.59375 Z M 25 23.09375 C 23.300781 24.195313 21.085938 25.414063 18.6875 25.8125 C 19.085938 25.914063 19.5 26 20 26 C 20.300781 26 20.601563 25.992188 21 26.09375 C 21.699219 26.09375 24.492188 26.613281 27.59375 27.3125 C 27.394531 26.710938 26.988281 26.210938 26.6875 25.8125 L 26.5 25.59375 C 25.898438 24.894531 25.300781 24.09375 25 23.09375 Z M 10.5 25 C 7.101563 25 5 26.800781 5 28 C 5 29.199219 7.492188 30.398438 11.09375 31 C 11.695313 31.101563 13.585938 31.300781 15.6875 31.5 C 16.386719 31.300781 17 30.695313 17.5 30.09375 C 18.101563 29.394531 18.6875 28.699219 19.1875 28 C 17.789063 27.800781 16.5 27.101563 15.5 26 C 13.898438 25.898438 12.6875 25.613281 11.6875 25.3125 C 11.289063 25.210938 10.699219 25 10.5 25 Z M 21.40625 28.3125 L 21.40625 28.40625 C 20.605469 29.40625 19.800781 30.5 19 31.5 C 18.898438 31.699219 18.695313 31.800781 18.59375 32 C 19.992188 32.101563 21.300781 32.1875 22.5 32.1875 L 24.3125 32.1875 C 23.3125 30.1875 22.789063 29.414063 22.6875 29.3125 C 22.585938 29.210938 22.511719 29.007813 22.3125 28.90625 L 22 28.59375 C 21.898438 28.492188 21.605469 28.414063 21.40625 28.3125 Z M 24.6875 28.6875 C 24.988281 29.1875 25.601563 30.210938 26.5 31.8125 C 29.699219 31.613281 33.105469 31.101563 33.90625 31 C 34.207031 31 34.507813 30.914063 34.90625 30.8125 C 32.007813 30.210938 27.789063 29.289063 24.6875 28.6875 Z"/></svg>